<svg xmlns="http://www.w3.org/2000/svg" viewBox="0 0 960 220" role="img" aria-labelledby="title desc">
  <title id="title">CAClaw wordmark</title>
  <desc id="desc">CAClaw logo for dark backgrounds with a gold CA monogram and light wordmark.</desc>
  <rect width="960" height="220" fill="none"/>
  <g transform="translate(48 40)">
    <rect x="0" y="0" width="140" height="140" rx="32" fill="#0f2744"/>
    <path d="M42 72c0-22 16-38 39-38 13 0 23 4 31 13l-13 13c-5-6-12-9-18-9-12 0-21 9-21 21s9 21 21 21c7 0 13-3 18-9l13 13c-8 9-18 13-31 13-23 0-39-16-39-38z" fill="#d4af37"/>
    <path d="M85 110l23-76h20l23 76h-19l-4-14h-22l-4 14H85zm38-28l-6-22-6 22h12z" fill="#f7f1df"/>
  </g>
  <text x="236" y="96" fill="#f8f5ed" font-size="72" font-weight="700" letter-spacing="1" font-family="Georgia, 'Times New Roman', serif">CAClaw</text>
  <text x="238" y="146" fill="#b8c7da" font-size="24" letter-spacing="3" font-family="Arial, Helvetica, sans-serif">CHARTERED ACCOUNTANT WORKSPACE</text>
</svg>
